<svg width="24" height="24" viewBox="0 0 24 24" fill="none" xmlns="http://www.w3.org/2000/svg">
<path d="M23.5982 5.51148C23.3248 5.45026 23.0635 5.64015 23.0098 5.92806L22.3631 9.36346C22.0507 9.21656 21.8132 8.96437 21.5362 8.66212C21.1612 8.25277 20.7087 7.76902 19.9758 7.58255C19.9148 6.4254 19.4477 5.34259 18.6133 4.51731L16.9463 2.86929C16.0059 1.94051 14.7037 1.43904 13.3809 1.50593L7.40192 1.78718C7.17294 1.79792 6.98052 1.96296 6.93514 2.18763C6.81013 2.8053 6.94199 3.42939 7.30672 3.94549C7.67098 4.46012 8.23981 4.80686 8.86826 4.89573L10.1207 5.0725C10.3355 5.10278 10.504 5.24143 10.5709 5.44407C10.6022 5.53881 10.6519 5.78246 10.4366 5.99542L7.30705 9.08957C7.16277 8.96311 7.0227 8.82272 6.8751 8.66208C6.40002 8.14448 5.80869 7.49996 4.67099 7.49996C3.5333 7.49996 2.94202 8.14448 2.46689 8.66208C2.18944 8.96456 1.95108 9.2175 1.63716 9.36436L0.99029 5.92801C0.936572 5.64062 0.675338 5.45125 0.401917 5.51143C0.131403 5.569 -0.0443777 5.84865 0.00980962 6.13656L2.76858 20.7916C2.95463 21.7814 3.77934 22.4999 4.72949 22.4999H19.2704C20.2206 22.4999 21.0454 21.7814 21.2314 20.7916L23.9901 6.13656C24.0445 5.8487 23.8687 5.56904 23.5982 5.51148ZM11.1398 6.70637C11.5592 6.29181 11.7052 5.68778 11.5202 5.12964C11.3341 4.56709 10.8512 4.1657 10.2604 4.08222L9.00846 3.90546C8.64617 3.85417 8.3322 3.66325 8.1237 3.36827C7.99479 3.18565 7.91764 2.97958 7.89617 2.76523L13.4279 2.50498C14.4684 2.45468 15.5016 2.84726 16.2433 3.58024L17.9103 5.22826C18.5395 5.85043 18.8984 6.65949 18.9703 7.52611C18.0685 7.64728 17.5551 8.20341 17.1349 8.66208C16.7062 9.13036 16.3673 9.49996 15.6715 9.49996C14.9757 9.49996 14.6369 9.13036 14.2081 8.66208C13.734 8.14448 13.1437 7.49996 12.0075 7.49996C10.8712 7.49996 10.2809 8.14448 9.80632 8.66208C9.3776 9.13036 9.03874 9.49996 8.34246 9.49996C8.33318 9.49996 8.3269 9.49659 8.31776 9.4965L11.1398 6.70637ZM13.3859 12.6491C13.192 12.4523 12.8756 12.4503 12.6789 12.6452L8.94204 16.3397C8.72379 16.556 8.36782 16.555 8.15056 16.3397C8.04654 16.2371 7.9894 16.1009 7.9894 15.9568C7.9894 15.8156 8.04359 15.6828 8.14273 15.5808L11.8873 11.8785C12.0836 11.6847 12.0856 11.3677 11.8912 11.1715C11.6974 10.9747 11.381 10.9727 11.1842 11.1676L7.44739 14.8621C7.44298 14.8665 7.43858 14.8709 7.43422 14.8752L6.70035 15.6008C6.4821 15.8162 6.12613 15.8162 5.90886 15.6008C5.80485 15.4978 5.74724 15.3616 5.74771 15.217C5.74771 15.073 5.80485 14.9372 5.90886 14.8342L9.64516 11.1397C9.84147 10.9459 9.8434 10.6289 9.64905 10.4326C9.56538 10.3476 9.45785 10.3063 9.34798 10.2941C9.87363 10.0624 10.2347 9.67481 10.5436 9.33787C10.9723 8.86959 11.3111 8.49998 12.0074 8.49998C12.7032 8.49998 13.0421 8.86959 13.4708 9.33787C13.9449 9.85546 14.5352 10.5 15.6715 10.5C16.8077 10.5 17.398 9.85546 17.8722 9.33787C18.206 8.97323 18.4909 8.67459 18.9267 8.55759C18.7841 9.26165 18.4356 9.90913 17.9102 10.4287L11.9317 16.3396C11.7139 16.5554 11.3575 16.5554 11.1397 16.3396C11.0357 16.237 10.9786 16.1008 10.9786 15.9568C10.9786 15.8122 11.0357 15.676 11.1397 15.5729L13.3819 13.356C13.5782 13.1622 13.5802 12.8453 13.3859 12.6491ZM7.46145 10.3431C7.71547 10.4378 8.0022 10.5 8.34242 10.5C8.56568 10.5 8.7626 10.4694 8.94696 10.4255C8.94551 10.4269 8.94349 10.4272 8.94204 10.4287L5.95279 13.3839C5.73355 13.6002 5.37857 13.5993 5.16131 13.3839C5.05729 13.2813 5.00015 13.1451 5.00015 13.001C5.00015 12.8565 5.05729 12.7203 5.16131 12.6172L7.46145 10.3431ZM20.2511 20.5831C20.1578 21.078 19.7457 21.5 19.2706 21.5H4.72964C4.25456 21.5 3.84244 21.078 3.74915 20.5831L1.82377 10.3549C2.44219 10.1427 2.8485 9.72571 3.20377 9.33839C3.63347 8.87011 3.97279 8.50003 4.67104 8.50003C5.36929 8.50003 5.70862 8.87015 6.13883 9.33839C6.27566 9.48749 6.42467 9.64593 6.59103 9.79762L4.45818 11.9063C4.16278 12.1984 4.00017 12.5876 4.00017 13.0011C4.00064 13.4147 4.16325 13.8034 4.45818 14.0949C4.60762 14.2429 4.78045 14.3542 4.96452 14.4294C4.82292 14.6647 4.74773 14.9353 4.74773 15.217C4.74726 15.6306 4.91034 16.0198 5.20574 16.3118C5.7194 16.8211 6.50699 16.8977 7.10516 16.5427C7.18278 16.7307 7.29805 16.9031 7.44744 17.0505C7.75067 17.3504 8.14859 17.4998 8.54656 17.4998C8.94452 17.4998 9.34245 17.3504 9.64521 17.0505L10.1135 16.5876C10.1906 16.758 10.2995 16.9148 10.4367 17.0505C11.0432 17.6502 12.0285 17.6492 12.635 17.0505L18.6135 11.1396C19.3142 10.4465 19.7579 9.57192 19.9216 8.62472C20.2596 8.769 20.5134 9.02583 20.799 9.33787C21.154 9.72487 21.5593 10.1421 22.1767 10.3545L20.2511 20.5831Z" fill="#1E212C"/>
</svg>
