<svg width="24" height="24" viewBox="0 0 24 24" fill="none" xmlns="http://www.w3.org/2000/svg">
<path d="M23.9956 19.4341L22.1689 5.73583C22.0371 4.74606 21.185 4 20.1865 4H8.49998C8.22361 4 7.99997 4.22364 7.99997 4.50002C7.99997 4.77639 8.22361 5.00003 8.49998 5.00003H20.1865C20.6856 5.00003 21.1118 5.37306 21.1777 5.86769L21.8623 11H8.49998C3.813 11 0 14.8129 0 19.5C0 19.7763 0.223641 20 0.500016 20H23.5C23.6441 20 23.7813 19.938 23.876 19.8296C23.9712 19.7207 24.0147 19.5766 23.9956 19.4341ZM1.01662 19C1.27491 15.0966 4.53272 12 8.49998 12H21.9956L22.9287 19H1.01662Z" fill="#1E212C"/>
</svg>
