<svg width="24" height="24" viewBox="0 0 24 24" fill="none" xmlns="http://www.w3.org/2000/svg">
<g clip-path="url(#clip0_2828_7752)">
<path d="M23.7966 21.0978L21.5174 19.4132L16.8381 10.0451L23.7966 4.90183C24.0193 4.73777 24.0661 4.4248 23.9021 4.20261C23.7361 3.98043 23.4236 3.93506 23.2029 4.09813L16.3848 9.13761L12.4472 1.25442C12.2773 0.915193 11.7226 0.915193 11.5527 1.25442L7.61512 9.13756L0.797097 4.09813C0.577351 3.93506 0.263904 3.98048 0.0978764 4.20261C-0.0661829 4.4248 -0.0193088 4.73777 0.203343 4.90183L7.16185 10.0451L2.48255 19.4132L0.203343 21.0978C-0.0193088 21.2619 -0.0661829 21.5749 0.0978764 21.797C0.1965 21.9294 0.347856 21.9997 0.500197 21.9997C0.603695 21.9997 0.708224 21.9679 0.79705 21.9015L1.49861 21.3829L1.05289 22.2752C0.975734 22.4302 0.983562 22.6144 1.07436 22.762C1.16614 22.9096 1.32729 22.9996 1.50011 22.9996H22.4997C22.6726 22.9996 22.8337 22.9096 22.9255 22.762C23.0163 22.6144 23.0241 22.4301 22.9469 22.2752L22.5012 21.3829L23.2028 21.9015C23.2916 21.9679 23.3961 21.9997 23.4996 21.9997C23.652 21.9997 23.8033 21.9294 23.9019 21.797C24.0661 21.5749 24.0193 21.2619 23.7966 21.0978ZM19.7416 18.1006L12.8405 12.9998L16.0171 10.6519L19.7416 18.1006ZM12 2.61818L15.5634 9.74468L12 12.3785L8.43659 9.74468L12 2.61818ZM7.98294 10.652L11.1595 12.9998L4.25837 18.1006L7.98294 10.652ZM2.30879 21.9996L3.27289 20.0716L12 13.6211L20.7271 20.0716L21.6912 21.9996H2.30879Z" fill="#1E212C"/>
</g>
<defs>
<clipPath id="clip0_2828_7752">
<rect width="24" height="24" fill="white"/>
</clipPath>
</defs>
</svg>
