<svg width="24" height="24" viewBox="0 0 24 24" fill="none" xmlns="http://www.w3.org/2000/svg">
<g clip-path="url(#clip0_2828_7736)">
<path d="M20.8178 3.889L23.8533 0.853512C24.0486 0.658184 24.0486 0.341777 23.8533 0.146496C23.658 -0.048832 23.3415 -0.048832 23.1463 0.146496L20.1108 3.18198C17.9724 1.21347 15.1287 1.17123e-05 11.9998 1.17123e-05C8.87086 1.17123e-05 6.0271 1.21347 3.88875 3.18198L0.853268 0.146496C0.657939 -0.048832 0.341533 -0.048832 0.146252 0.146496C-0.0490293 0.341824 -0.0490762 0.65823 0.146252 0.853512L3.18174 3.889C1.21322 6.02743 -0.000232428 8.87125 -0.000232428 12C-0.000232428 15.1288 1.21322 17.9726 3.18174 20.111L0.146252 23.1465C-0.0490762 23.3418 -0.0490762 23.6582 0.146252 23.8535C0.243893 23.9512 0.371861 24 0.499783 24C0.627705 24 0.755627 23.9512 0.853314 23.8535L3.8888 20.8181C6.0271 22.7866 8.87086 24 11.9998 24C15.1287 24 17.9724 22.7866 20.1108 20.8181L23.1463 23.8535C23.2439 23.9512 23.3719 24 23.4998 24C23.6277 24 23.7556 23.9512 23.8533 23.8535C24.0487 23.6582 24.0487 23.3418 23.8533 23.1465L20.8179 20.111C22.7863 17.9726 23.9998 15.1288 23.9998 12C23.9998 8.87125 22.7863 6.02743 20.8178 3.889ZM11.9998 0.999996C14.8529 0.999996 17.4472 2.101 19.404 3.88881L11.9998 11.293L4.59558 3.88881C6.55233 2.10104 9.14667 0.999996 11.9998 0.999996ZM3.88856 19.4042C2.1008 17.4474 0.999752 14.8531 0.999752 12C0.999752 9.14692 2.1008 6.55257 3.88856 4.59582L11.2928 12L3.88856 19.4042ZM11.9998 23C9.14667 23 6.55233 21.899 4.59558 20.1112L11.9998 12.707L19.404 20.1112C17.4472 21.899 14.8529 23 11.9998 23ZM20.111 19.4042L12.7068 12L20.111 4.59582C21.8987 6.55257 22.9998 9.14692 22.9998 12C22.9998 14.8531 21.8987 17.4474 20.111 19.4042Z" fill="#1E212C"/>
</g>
<defs>
<clipPath id="clip0_2828_7736">
<rect width="24" height="24" fill="white"/>
</clipPath>
</defs>
</svg>
