<svg width="24" height="24" viewBox="0 0 24 24" fill="none" xmlns="http://www.w3.org/2000/svg">
<path d="M23.9958 18.4339L22.1687 4.73534C22.0369 3.7461 21.1843 3 20.1863 3H8.49988C8.22351 3 7.99988 3.22364 7.99988 3.50001C7.99988 3.77638 8.22351 4.00002 8.49988 4.00002H20.1863C20.6853 4.00002 21.1121 4.37305 21.1775 4.86767L21.8621 9.99995H18.0534L20.8034 7.89693C21.0232 7.72944 21.0642 7.41548 20.8972 7.19625C20.7283 6.97603 20.4148 6.936 20.196 7.10297L16.4077 9.9999H8.49988C8.21245 9.9999 7.92849 10.015 7.64832 10.0431L3.80363 7.10297C3.58388 6.93595 3.27141 6.97603 3.10248 7.19625C2.93551 7.41548 2.97653 7.72944 3.19623 7.89693L6.32796 10.2917C2.69191 11.2553 0 14.5647 0 18.4998C0 18.7762 0.223638 18.9998 0.50001 18.9998H4.6387L3.19628 20.1028C2.97657 20.2703 2.93556 20.5843 3.10253 20.8035C3.20115 20.9324 3.3496 20.9998 3.49997 20.9998C3.60643 20.9998 3.71288 20.9661 3.80367 20.8968L6.28432 18.9998H17.7154L20.1961 20.8968C20.2869 20.9661 20.3933 20.9998 20.4998 20.9998C20.6502 20.9998 20.7986 20.9324 20.8972 20.8035C21.0643 20.5843 21.0232 20.2703 20.8035 20.1028L19.3611 18.9998H23.4998C23.6443 18.9998 23.781 18.9378 23.8757 18.8295C23.9704 18.7206 24.0144 18.5765 23.9958 18.4339ZM15.1 11L11.9999 13.3707L8.89968 10.9999H15.1V11ZM5.94635 17.9999H1.01661C1.24953 14.4734 3.93389 11.6137 7.37551 11.0928L11.1771 13.9999L5.94635 17.9999ZM7.59197 17.9999L11.9999 14.6291L16.4077 17.9999H7.59197ZM18.0534 17.9999L12.8226 13.9999L16.7457 11H21.9958L22.9285 17.9999H18.0534Z" fill="#1E212C"/>
</svg>
