<svg width="24" height="24" viewBox="0 0 24 24" fill="none" xmlns="http://www.w3.org/2000/svg">
<g clip-path="url(#clip0_2828_7741)">
<path d="M22.9998 22.293V1.70706L23.8533 0.853559C24.0486 0.65823 24.0486 0.341824 23.8533 0.146543C23.658 -0.0487852 23.3415 -0.0487852 23.1463 0.146543L22.2928 1.00004H1.70681L0.853268 0.146496C0.657939 -0.048832 0.341533 -0.048832 0.146252 0.146496C-0.0490293 0.341824 -0.0490762 0.65823 0.146252 0.853512L0.999752 1.70701V22.293L0.146252 23.1465C-0.0490762 23.3418 -0.0490762 23.6582 0.146252 23.8535C0.243893 23.9512 0.371861 24 0.499783 24C0.627705 24 0.755627 23.9512 0.853314 23.8535L1.70681 23H22.2928L23.1463 23.8535C23.2439 23.9512 23.3719 24 23.4998 24C23.6277 24 23.7556 23.9512 23.8533 23.8535C24.0487 23.6582 24.0487 23.3418 23.8533 23.1465L22.9998 22.293ZM11.9998 2.00003H21.2927L18.6972 4.59554C16.9222 2.98848 14.5772 2.00003 11.9998 2.00003C9.4223 2.00003 7.07733 2.98848 5.30231 4.59554L2.7068 2.00003H11.9998ZM11.2928 12L5.30217 17.9905C3.87567 16.3974 2.99977 14.3016 2.99977 12C2.99977 9.69845 3.87567 7.60262 5.30217 6.00948L11.2928 12ZM6.00924 5.30242C7.60238 3.87592 9.6982 3.00001 11.9998 3.00001C14.3013 3.00001 16.3972 3.87592 17.9903 5.30242L11.9998 11.293L6.00924 5.30242ZM11.9998 12.707L17.9903 18.6976C16.3972 20.1241 14.3013 21 11.9998 21C9.6982 21 7.60238 20.1241 6.00924 18.6976L11.9998 12.707ZM12.7068 12L18.6973 6.00948C20.1239 7.60262 20.9998 9.69845 20.9998 12C20.9998 14.3016 20.1239 16.3974 18.6974 17.9905L12.7068 12ZM1.99978 12V2.70704L4.5953 5.30256C2.98824 7.07757 1.99978 9.42254 1.99978 12C1.99978 14.5775 2.98824 16.9224 4.5953 18.6975L1.99978 21.293V12ZM11.9998 22H2.7068L5.30231 19.4045C7.07733 21.0115 9.4223 22 11.9998 22C14.5772 22 16.9222 21.0115 18.6972 19.4045L21.2927 22H11.9998ZM21.9998 12V21.293L19.4042 18.6975C21.0113 16.9224 21.9998 14.5775 21.9998 12C21.9998 9.42254 21.0113 7.07757 19.4042 5.30256L21.9998 2.70704V12Z" fill="#1E212C"/>
</g>
<defs>
<clipPath id="clip0_2828_7741">
<rect width="24" height="24" fill="white"/>
</clipPath>
</defs>
</svg>
