<svg width="24" height="24" viewBox="0 0 24 24" fill="none" xmlns="http://www.w3.org/2000/svg">
<g clip-path="url(#clip0_2828_7712)">
<path d="M23.293 9.04489L23.0819 9.14089L23.9903 4.59911C24.045 4.32813 23.8692 4.06493 23.5977 4.01075C23.3409 3.95412 23.0645 4.13089 23.0098 4.40285L22.3223 7.84004C22.0312 7.69046 21.801 7.45126 21.5372 7.16336C21.0626 6.64536 20.4718 6.00084 19.3351 6.00084C18.1984 6.00084 17.6086 6.64536 17.134 7.16336C16.7062 7.63112 16.3674 8.00068 15.6721 8.00068C14.9758 8.00068 14.6379 7.63112 14.2092 7.16336C13.7346 6.64536 13.1438 6.00084 12.0071 6.00084C10.8714 6.00084 10.2806 6.64536 9.80692 7.16285C9.37723 7.63112 9.03837 8.00068 8.3421 8.00068C7.64485 8.00068 7.30501 7.63112 6.87532 7.16285C6.40072 6.64536 5.80893 6.00084 4.67125 6.00084C3.53356 6.00084 2.94276 6.64489 2.46816 7.16285C2.20295 7.45155 1.97167 7.69173 1.67838 7.8413L0.990686 4.4028C0.935984 4.13084 0.659614 3.95361 0.40279 4.0107C0.131295 4.06489 -0.044483 4.32808 0.0102192 4.59906L0.918641 9.14084L0.707473 9.04485C0.456508 8.93155 0.160592 9.04189 0.0453748 9.2929C-0.0689044 9.54438 0.0424218 9.84077 0.293433 9.955L1.16028 10.349L2.76567 18.3754L1.2934 19.0447C1.04244 19.1589 0.931109 19.4553 1.04534 19.7068C1.12934 19.8908 1.31098 19.9997 1.5004 19.9997C1.56972 19.9997 1.64003 19.9856 1.70744 19.9548L3.19734 19.2776C3.56834 19.721 4.12254 19.9997 4.72984 19.9997H19.2706C19.8779 19.9997 20.4321 19.721 20.8031 19.2776L22.293 19.9548C22.3604 19.9856 22.4307 19.9997 22.5 19.9997C22.6895 19.9997 22.8711 19.8908 22.9551 19.7068C23.0694 19.4553 22.958 19.1589 22.707 19.0447L21.2348 18.3754L22.8401 10.349L23.707 9.955C23.958 9.84072 24.0693 9.54438 23.955 9.2929C23.8409 9.04199 23.545 8.9316 23.293 9.04489ZM2.28202 10.859L10.7921 14.7272L3.70044 17.9506L2.28202 10.859ZM19.2707 18.9998H4.72989C4.53067 18.9998 4.34908 18.9298 4.19079 18.8261L12.0003 15.2763L19.8097 18.8261C19.6514 18.9298 19.4699 18.9998 19.2707 18.9998ZM20.3001 17.9506L13.2084 14.7272L21.7185 10.859L20.3001 17.9506ZM21.9602 9.65069L12.0003 14.1779L2.04039 9.65069L1.87848 8.84118C2.46844 8.62335 2.859 8.21527 3.20455 7.83859C3.63425 7.37031 3.97409 7.00071 4.67134 7.00071C5.36958 7.00071 5.70942 7.37083 6.13911 7.83906C6.61371 8.35655 7.2055 9.00055 8.3422 9.00055C9.4789 9.00055 10.0697 8.35608 10.5443 7.83812C10.973 7.37036 11.3109 7.00071 12.0071 7.00071C12.7034 7.00071 13.0423 7.37031 13.472 7.83859C13.9456 8.35608 14.5364 9.00055 15.6721 9.00055C16.8079 9.00055 17.3977 8.35608 17.8723 7.83859C18.301 7.37031 18.6389 7.00071 19.3352 7.00071C20.0314 7.00071 20.3703 7.37031 20.8 7.83859C21.1445 8.21527 21.5342 8.62307 22.1222 8.8409L21.9602 9.65069Z" fill="#1E212C"/>
</g>
<defs>
<clipPath id="clip0_2828_7712">
<rect width="24" height="24" fill="white"/>
</clipPath>
</defs>
</svg>
