<svg width="24" height="24" viewBox="0 0 24 24" fill="none" xmlns="http://www.w3.org/2000/svg">
<g clip-path="url(#clip0_2828_7747)">
<path d="M23.4546 0H0.545472C0.243972 0 0 0.243972 0 0.545472V23.4546C0 23.7561 0.243972 24.0001 0.545472 24.0001H23.4546C23.7561 24.0001 24.0001 23.7561 24.0001 23.4546V0.545472C24 0.243972 23.7561 0 23.4546 0ZM22.9091 12V22.9091H12H1.09089V12V1.09089H12H22.9091V12Z" fill="#1E212C"/>
<path d="M12 1.09089C5.98454 1.09089 1.09089 5.9846 1.09089 12C1.09089 18.0155 5.98454 22.9091 12 22.9091C18.0155 22.9091 22.9091 18.0155 22.9091 12C22.9091 5.9846 18.0154 1.09089 12 1.09089ZM12 21.8182C6.58648 21.8182 2.18185 17.4136 2.18185 12C2.18185 6.58646 6.58648 2.18183 12 2.18183C17.4136 2.18183 21.8182 6.58646 21.8182 12C21.8182 17.4136 17.4135 21.8182 12 21.8182Z" fill="#1E212C"/>
<path d="M9.8182 13.0909C10.4207 13.0909 10.9091 12.6025 10.9091 12C10.9091 11.3976 10.4207 10.9091 9.8182 10.9091C9.21572 10.9091 8.72731 11.3976 8.72731 12C8.72731 12.6025 9.21572 13.0909 9.8182 13.0909Z" fill="#1E212C"/>
<path d="M14.1818 13.0909C14.7843 13.0909 15.2727 12.6025 15.2727 12C15.2727 11.3976 14.7843 10.9091 14.1818 10.9091C13.5793 10.9091 13.0909 11.3976 13.0909 12C13.0909 12.6025 13.5793 13.0909 14.1818 13.0909Z" fill="#1E212C"/>
</g>
<defs>
<clipPath id="clip0_2828_7747">
<rect width="24" height="24" fill="white"/>
</clipPath>
</defs>
</svg>
