<svg width="24" height="24" viewBox="0 0 24 24" fill="none" xmlns="http://www.w3.org/2000/svg">
<g clip-path="url(#clip0_2828_7720)">
<path d="M8.00016 13.9999C8.55243 13.9999 9.00013 13.5522 9.00013 13C9.00013 12.4477 8.55243 12 8.00016 12C7.4479 12 7.0002 12.4477 7.0002 13C7.0002 13.5522 7.4479 13.9999 8.00016 13.9999Z" fill="#1E212C"/>
<path d="M12.0001 13.9999C12.5524 13.9999 13.0001 13.5522 13.0001 13C13.0001 12.4477 12.5524 12 12.0001 12C11.4478 12 11.0001 12.4477 11.0001 13C11.0001 13.5522 11.4478 13.9999 12.0001 13.9999Z" fill="#1E212C"/>
<path d="M16 13.9999C16.5523 13.9999 17 13.5522 17 13C17 12.4477 16.5523 12 16 12C15.4478 12 15.0001 12.4477 15.0001 13C15.0001 13.5522 15.4478 13.9999 16 13.9999Z" fill="#1E212C"/>
<path d="M23.5976 4.01075C23.3408 3.95412 23.0644 4.13089 23.0097 4.40285L22.3222 7.84004C22.0311 7.69046 21.8009 7.45126 21.5371 7.16336C21.0625 6.64536 20.4717 6.00084 19.335 6.00084C18.1983 6.00084 17.6084 6.64536 17.1338 7.16336C16.7061 7.63112 16.3673 8.00068 15.6719 8.00068C14.9757 8.00068 14.6377 7.63112 14.2091 7.16336C13.7345 6.64536 13.1437 6.00084 12.007 6.00084C10.8713 6.00084 10.2805 6.64536 9.8068 7.16285C9.37711 7.63112 9.03825 8.00068 8.34198 8.00068C7.64473 8.00068 7.30489 7.63112 6.8752 7.16285C6.40059 6.64536 5.80881 6.00084 4.67113 6.00084C3.53344 6.00084 2.94264 6.64489 2.46804 7.16285C2.20282 7.45155 1.97155 7.69173 1.67826 7.8413L0.990564 4.4028C0.935862 4.13084 0.659492 3.95361 0.402668 4.0107C0.131173 4.06489 -0.044605 4.32808 0.0100971 4.59906L2.76883 18.3919C2.95534 19.3235 3.78052 19.9998 4.72972 19.9998H19.2705C20.2197 19.9998 21.0448 19.3235 21.2313 18.3919L23.9901 4.59906C24.0449 4.32813 23.8691 4.06493 23.5976 4.01075ZM20.251 18.1957C20.1572 18.6615 19.7451 18.9998 19.2705 18.9998H4.72976C4.25516 18.9998 3.84305 18.6615 3.7493 18.1957L1.87831 8.84122C2.46827 8.6234 2.85883 8.21531 3.20439 7.83863C3.63408 7.37036 3.97392 7.00076 4.67117 7.00076C5.36941 7.00076 5.70925 7.37088 6.13894 7.8391C6.61354 8.35659 7.20533 9.0006 8.34203 9.0006C9.47873 9.0006 10.0695 8.35612 10.5441 7.83816C10.9728 7.37041 11.3107 7.00076 12.007 7.00076C12.7032 7.00076 13.0421 7.37036 13.4718 7.83863C13.9454 8.35612 14.5362 9.0006 15.672 9.0006C16.8077 9.0006 17.3976 8.35612 17.8722 7.83863C18.3009 7.37036 18.6387 7.00076 19.335 7.00076C20.0313 7.00076 20.3701 7.37036 20.7998 7.83863C21.1443 8.21531 21.5341 8.62312 22.1221 8.84094L20.251 18.1957Z" fill="#1E212C"/>
</g>
<defs>
<clipPath id="clip0_2828_7720">
<rect width="24" height="24" fill="white"/>
</clipPath>
</defs>
</svg>
