<svg width="24" height="24" viewBox="0 0 24 24" fill="none" xmlns="http://www.w3.org/2000/svg">
<g clip-path="url(#clip0_2828_7714)">
<path d="M23.5977 4.01072C23.3409 3.95409 23.0645 4.13081 23.0098 4.40277L22.3223 7.83996C22.0312 7.69039 21.801 7.45119 21.5372 7.16333C21.0626 6.64533 20.4718 6.00081 19.3351 6.00081C18.1984 6.00081 17.6086 6.64528 17.134 7.16333C16.7062 7.63109 16.3674 8.00069 15.6721 8.00069C14.9758 8.00069 14.6379 7.63109 14.2092 7.16333C13.7346 6.64533 13.1438 6.00081 12.0071 6.00081C10.8714 6.00081 10.2806 6.64528 9.80692 7.16282C9.37723 7.63104 9.03837 8.00065 8.3421 8.00065C7.64485 8.00065 7.30501 7.63104 6.87532 7.16282C6.40072 6.64528 5.80893 6.00081 4.67125 6.00081C3.53356 6.00081 2.94276 6.64481 2.46816 7.16282C2.20295 7.45151 1.97167 7.69165 1.67838 7.84123L0.990686 4.40277C0.935984 4.13081 0.659614 3.95358 0.40279 4.01072C0.131295 4.0649 -0.044483 4.32805 0.0102192 4.59903L2.76895 18.3919C2.95546 19.3235 3.78064 19.9997 4.72984 19.9997H19.2706C20.2198 19.9997 21.045 19.3235 21.2315 18.3919L23.9902 4.59903C24.045 4.3281 23.8692 4.0649 23.5977 4.01072ZM20.2511 18.1957C20.1574 18.6615 19.7452 18.9998 19.2706 18.9998H4.72989C4.25529 18.9998 3.84317 18.6615 3.74942 18.1957L1.87844 8.84115C2.46839 8.62332 2.85895 8.21528 3.20451 7.83855C3.6342 7.37033 3.97404 7.00073 4.67129 7.00073C5.36953 7.00073 5.70937 7.3708 6.13907 7.83902C6.61367 8.35656 7.20545 9.00057 8.34215 9.00057C9.47885 9.00057 10.0697 8.35609 10.5443 7.83804C10.973 7.37028 11.3108 7.00068 12.0071 7.00068C12.7034 7.00068 13.0422 7.37028 13.4719 7.83851C13.9455 8.35605 14.5363 9.00052 15.6721 9.00052C16.8078 9.00052 17.3977 8.35605 17.8723 7.83851C18.301 7.37028 18.6389 7.00068 19.3351 7.00068C20.0314 7.00068 20.3703 7.37028 20.7999 7.83851C21.1444 8.21524 21.5342 8.62299 22.1222 8.84082L20.2511 18.1957Z" fill="#1E212C"/>
</g>
<defs>
<clipPath id="clip0_2828_7714">
<rect width="24" height="24" fill="white"/>
</clipPath>
</defs>
</svg>
